<svg width="58" height="58" viewBox="0 0 58 58" fill="none" xmlns="http://www.w3.org/2000/svg">
<rect x="0.200195" y="0.199219" width="57.6" height="57.6" rx="28.8" fill="#242526"/>
<rect x="0.700195" y="0.699219" width="56.6" height="56.6" rx="28.3" stroke="white" stroke-opacity="0.2"/>
<path d="M32.59 29.4V33.47C32.59 33.83 32.55 34.17 32.46 34.48C32.09 35.95 30.87 36.87 29.19 36.87H26.47L23.45 38.88C23 39.19 22.4 38.86 22.4 38.32V36.87C21.38 36.87 20.53 36.53 19.94 35.94C19.34 35.34 19 34.49 19 33.47V29.4C19 27.5 20.18 26.19 22 26.02C22.13 26.01 22.26 26 22.4 26H29.19C31.23 26 32.59 27.36 32.59 29.4Z" fill="white"/>
<path d="M34.75 32.6C36.02 32.6 37.09 32.18 37.83 31.43C38.58 30.69 39 29.62 39 28.35V23.25C39 20.9 37.1 19 34.75 19H26.25C23.9 19 22 20.9 22 23.25V24C22 24.28 22.22 24.5 22.5 24.5H29.19C31.9 24.5 34.09 26.69 34.09 29.4V32.1C34.09 32.38 34.31 32.6 34.59 32.6H34.75Z" fill="white"/>
</svg>
