<svg width="20" height="20" viewBox="0 0 20 20" fill="none" xmlns="http://www.w3.org/2000/svg">
<path d="M8.82081 7.64233C8.49537 7.31689 7.96773 7.31689 7.6423 7.64233C7.31686 7.96776 7.31686 8.4954 7.6423 8.82084L8.82081 9.99935L7.6423 11.1779C7.31686 11.5033 7.31686 12.0309 7.6423 12.3564C7.96773 12.6818 8.49537 12.6818 8.82081 12.3564L9.99932 11.1779L11.1778 12.3564C11.5033 12.6818 12.0309 12.6818 12.3563 12.3564C12.6818 12.0309 12.6818 11.5033 12.3563 11.1779L11.1778 9.99935L12.3563 8.82084C12.6818 8.4954 12.6818 7.96776 12.3563 7.64233C12.0309 7.31689 11.5033 7.31689 11.1778 7.64233L9.99932 8.82084L8.82081 7.64233Z" fill="#667185"/>
<path fill-rule="evenodd" clip-rule="evenodd" d="M9.99935 1.66602C5.39698 1.66602 1.66602 5.39698 1.66602 9.99935C1.66602 14.6017 5.39698 18.3327 9.99935 18.3327C14.6017 18.3327 18.3327 14.6017 18.3327 9.99935C18.3327 5.39698 14.6017 1.66602 9.99935 1.66602ZM3.33268 9.99935C3.33268 6.31745 6.31745 3.33268 9.99935 3.33268C13.6812 3.33268 16.666 6.31745 16.666 9.99935C16.666 13.6812 13.6812 16.666 9.99935 16.666C6.31745 16.666 3.33268 13.6812 3.33268 9.99935Z" fill="#667185"/>
</svg>
